<svg width="20" height="20" viewBox="0 0 20 20" fill="none" xmlns="http://www.w3.org/2000/svg">
<path d="M5.50098 0.952381C5.50098 0.426395 5.05326 0 4.50098 0C3.94869 0 3.50098 0.426395 3.50098 0.952381V1.90476C3.50098 2.43075 3.94869 2.85714 4.50098 2.85714C5.05326 2.85714 5.50098 2.43075 5.50098 1.90476V0.952381Z" fill="#023763" fill-opacity="0.36"/>
<path d="M16.5 0.952381C16.5 0.426395 16.0523 0 15.5 0C14.9477 0 14.5 0.426395 14.5 0.952381V1.90476C14.5 2.43075 14.9477 2.85714 15.5 2.85714C16.0523 2.85714 16.5 2.43075 16.5 1.90476V0.952381Z" fill="#023763" fill-opacity="0.36"/>
<path d="M0 7.14258V18.095C0 19.1469 0.8955 19.9997 2 19.9997H18C19.1045 19.9997 20 19.1469 20 18.095V7.14258H0ZM6 16.6664C6 17.1926 5.5525 17.6188 5 17.6188H4C3.4475 17.6188 3 17.1926 3 16.6664V15.714C3 15.1878 3.4475 14.7616 4 14.7616H5C5.5525 14.7616 6 15.1878 6 15.714V16.6664ZM6 11.4283C6 11.9545 5.5525 12.3807 5 12.3807H4C3.4475 12.3807 3 11.9545 3 11.4283V10.4759C3 9.94972 3.4475 9.52353 4 9.52353H5C5.5525 9.52353 6 9.94972 6 10.4759V11.4283ZM11.5 16.6664C11.5 17.1926 11.0525 17.6188 10.5 17.6188H9.5C8.9475 17.6188 8.5 17.1926 8.5 16.6664V15.714C8.5 15.1878 8.9475 14.7616 9.5 14.7616H10.5C11.0525 14.7616 11.5 15.1878 11.5 15.714V16.6664ZM11.5 11.4283C11.5 11.9545 11.0525 12.3807 10.5 12.3807H9.5C8.9475 12.3807 8.5 11.9545 8.5 11.4283V10.4759C8.5 9.94972 8.9475 9.52353 9.5 9.52353H10.5C11.0525 9.52353 11.5 9.94972 11.5 10.4759V11.4283ZM17 16.6664C17 17.1926 16.5525 17.6188 16 17.6188H15C14.4475 17.6188 14 17.1926 14 16.6664V15.714C14 15.1878 14.4475 14.7616 15 14.7616H16C16.5525 14.7616 17 15.1878 17 15.714V16.6664ZM17 11.4283C17 11.9545 16.5525 12.3807 16 12.3807H15C14.4475 12.3807 14 11.9545 14 11.4283V10.4759C14 9.94972 14.4475 9.52353 15 9.52353H16C16.5525 9.52353 17 9.94972 17 10.4759V11.4283Z" fill="#023763" fill-opacity="0.36"/>
<path d="M20 6.19062V3.33347C20 2.28157 19.1045 1.42871 18 1.42871H17.5V1.9049C17.5 2.95538 16.603 3.80966 15.5 3.80966C14.397 3.80966 13.5 2.95538 13.5 1.9049V1.42871H6.5V1.9049C6.5 2.95538 5.603 3.80966 4.5 3.80966C3.397 3.80966 2.5 2.95538 2.5 1.9049V1.42871H2C0.8955 1.42871 0 2.28157 0 3.33347V6.19062H20Z" fill="#023763" fill-opacity="0.36"/>
</svg>
