<svg width="200" height="54" viewBox="0 0 200 54" fill="none" xmlns="http://www.w3.org/2000/svg">
<path d="M71.7835 20.0352C70.2016 19.2146 68.4386 18.8054 66.657 18.8455H57.3876L57.4141 19.1098H57.7419C57.9706 19.1075 58.1974 19.151 58.409 19.2377C58.6206 19.3245 58.8127 19.4527 58.974 19.6148C59.1423 19.7698 59.2763 19.9583 59.3674 20.1683C59.4584 20.3782 59.5045 20.6048 59.5027 20.8336V35.9829C59.4909 36.4416 59.3013 36.8776 58.974 37.1991C58.8161 37.3621 58.6265 37.491 58.4168 37.5779C58.2072 37.6647 57.982 37.7077 57.7551 37.7041H57.4009V37.9685H66.6702C68.4533 38.0081 70.2173 37.5942 71.7967 36.7655C73.231 35.9895 74.421 34.8296 75.2337 33.4158C76.088 31.8819 76.517 30.1477 76.4763 28.3924C76.514 26.6375 76.0852 24.9041 75.2337 23.3691C74.4211 21.9546 73.225 20.7988 71.7835 20.0352ZM73.4517 33.0086C72.8564 34.265 71.9179 35.3273 70.7444 36.0728C69.5149 36.8215 68.096 37.2005 66.657 37.1648H61.2715V19.665H66.657C68.0917 19.6336 69.5054 20.0134 70.7312 20.7596C71.9103 21.5012 72.8539 22.5631 73.4517 23.8212C74.1266 25.2572 74.4596 26.83 74.4247 28.4162C74.46 30.0017 74.1269 31.5737 73.4517 33.0086Z" fill="#04ADEE"/>
<path d="M83.2974 22.2772C83.6696 21.9869 84.1317 21.8363 84.6035 21.8515H84.9604L84.9868 21.5872H78.7711V21.8515H79.1545C79.6235 21.8381 80.0826 21.9887 80.4526 22.2772C80.6199 22.3997 80.7572 22.5585 80.8542 22.7416C80.9513 22.9248 81.0056 23.1276 81.0131 23.3347V36.2421C81.0014 36.4454 80.9451 36.6436 80.8483 36.8227C80.7514 37.0018 80.6163 37.1574 80.4526 37.2785C80.0855 37.5736 79.6253 37.7283 79.1545 37.7147H78.7711V37.9791H84.9789L84.9525 37.7147H84.6035C84.1326 37.7283 83.6724 37.5736 83.3053 37.2785C83.1413 37.1571 83.006 37.0011 82.9091 36.8215C82.8122 36.6419 82.7561 36.4432 82.7448 36.2394V23.3295C82.7522 23.1239 82.8056 22.9225 82.9013 22.7404C82.9969 22.5583 83.1323 22.4 83.2974 22.2772Z" fill="#04ADEE"/>
<path d="M99.9775 21.4839C99.5922 21.5278 99.2047 21.5508 98.8169 21.5526H89.9282C89.5351 21.5506 89.1424 21.5276 88.7517 21.4839C88.3709 21.4439 87.9924 21.3848 87.6175 21.3068C87.3641 21.2552 87.1135 21.1908 86.8666 21.1138V24.2044H87.1654V23.7656C87.16 23.5831 87.1916 23.4015 87.2582 23.2316C87.3249 23.0617 87.4252 22.9071 87.5531 22.7769C87.681 22.6468 87.8339 22.5438 88.0027 22.4743C88.1714 22.4047 88.3524 22.37 88.5349 22.3722H93.4842V36.2366C93.4758 36.4339 93.428 36.6275 93.3435 36.8059C93.259 36.9844 93.1397 37.1441 92.9925 37.2757C92.6899 37.5633 92.2862 37.72 91.8688 37.7119H91.541V37.9763H97.175V37.7119H96.8736C96.4572 37.7193 96.0546 37.5626 95.7527 37.2757C95.6054 37.1441 95.4861 36.9844 95.4016 36.8059C95.3172 36.6275 95.2693 36.4339 95.2609 36.2366V22.3722H100.202C100.385 22.3696 100.566 22.4041 100.735 22.4735C100.903 22.543 101.056 22.6459 101.184 22.7762C101.312 22.9065 101.412 23.0613 101.478 23.2314C101.544 23.4015 101.575 23.5832 101.569 23.7656V24.2044H101.871V21.1138C101.618 21.1913 101.363 21.2558 101.104 21.3068C100.765 21.3782 100.387 21.439 99.9775 21.4839Z" fill="#04ADEE"/>
<path d="M116.192 21.4839C115.807 21.5279 115.42 21.5508 115.032 21.5526H106.143C105.751 21.5506 105.359 21.5277 104.969 21.4839C104.587 21.4441 104.208 21.385 103.832 21.3068C103.497 21.2327 103.245 21.1693 103.081 21.1138V24.2044H103.375V23.7656C103.369 23.5832 103.4 23.4015 103.466 23.2314C103.532 23.0613 103.632 22.9065 103.76 22.7762C103.888 22.6459 104.041 22.543 104.209 22.4735C104.378 22.4041 104.559 22.3696 104.742 22.3722H109.691V36.2366C109.683 36.4339 109.635 36.6275 109.55 36.8059C109.466 36.9844 109.347 37.1441 109.199 37.2757C108.897 37.5626 108.495 37.7193 108.078 37.7119H107.75V37.9763H113.382V37.7119H113.08C112.667 37.7179 112.268 37.5624 111.967 37.2783C111.82 37.1468 111.701 36.987 111.616 36.8086C111.532 36.6301 111.484 36.4365 111.476 36.2393V22.3722H116.425C116.607 22.3696 116.789 22.4041 116.957 22.4735C117.126 22.543 117.279 22.6459 117.407 22.7762C117.535 22.9065 117.635 23.0613 117.701 23.2314C117.767 23.4015 117.798 23.5832 117.792 23.7656V24.2044H118.093V21.1138C117.842 21.1914 117.587 21.2558 117.329 21.3068C116.983 21.3782 116.594 21.439 116.192 21.4839Z" fill="#04ADEE"/>
<path d="M144.09 37.3022C143.917 37.1713 143.771 37.0075 143.661 36.8201C143.55 36.6328 143.478 36.4256 143.448 36.2103L141.246 21.1958H141L134.025 35.0734L126.807 21.1958H126.543L124.428 36.1548C124.412 36.3787 124.349 36.5968 124.243 36.7946C124.137 36.9924 123.99 37.1654 123.812 37.3022C123.457 37.5766 123.018 37.7212 122.569 37.712H122.12V37.9764H127.17V37.7305H126.786C126.627 37.7409 126.468 37.7098 126.324 37.6403C126.181 37.5708 126.057 37.4653 125.967 37.3339C125.857 37.1533 125.792 36.9495 125.776 36.739L127.016 25.6348L133.597 38.3544H133.861C133.941 37.9409 134.051 37.5336 134.189 37.1356C134.335 36.7073 134.546 36.1838 134.818 35.5652L139.992 25.418L141.446 36.5646C141.48 36.8297 141.428 37.0987 141.296 37.3313C141.158 37.5957 140.881 37.7226 140.46 37.7411H140.051V37.9869H145.74V37.7226H145.307C144.866 37.7211 144.438 37.5733 144.09 37.3022Z" fill="#023763"/>
<path d="M162.904 23.5753C162.616 23.3185 162.312 23.0817 161.992 22.8667L163.245 21.3597L162.534 20.7305L161.175 22.3697C160.782 22.1547 160.373 21.9683 159.953 21.8118C158.801 21.396 157.583 21.1874 156.358 21.1958C155.137 21.1867 153.923 21.3953 152.775 21.8118C151.691 22.2046 150.692 22.8034 149.835 23.5753C148.994 24.3357 148.319 25.2619 147.852 26.2958C147.383 27.3985 147.141 28.5846 147.141 29.783C147.141 30.9815 147.383 32.1676 147.852 33.2703C148.319 34.3041 148.994 35.2304 149.835 35.9908L149.851 36.004L148.18 38.0134L148.865 38.6162L150.565 36.5778C151.245 37.0693 151.988 37.4651 152.775 37.7543C153.923 38.1707 155.137 38.3793 156.358 38.3703C157.583 38.3787 158.801 38.1701 159.953 37.7543C161.043 37.3631 162.046 36.7642 162.907 35.9908C163.75 35.2318 164.425 34.3052 164.89 33.2703C165.359 32.1676 165.601 30.9815 165.601 29.783C165.601 28.5846 165.359 27.3985 164.89 26.2958C164.424 25.2606 163.748 24.334 162.904 23.5753ZM150.121 33.8414C149.463 32.5954 149.134 31.2023 149.164 29.7936C149.13 28.3804 149.46 26.9821 150.121 25.7326C150.725 24.6051 151.622 23.6615 152.717 23.0015C153.826 22.3557 155.085 22.0154 156.368 22.0154C157.651 22.0154 158.911 22.3557 160.02 23.0015C160.16 23.0861 160.284 23.1734 160.429 23.2659L150.798 34.8593C150.544 34.5393 150.318 34.1989 150.121 33.8414ZM162.618 33.8414C162.015 34.9706 161.117 35.9153 160.02 36.5751C158.677 37.3875 157.102 37.7291 155.544 37.5457C153.986 37.3623 152.533 36.6644 151.416 35.5625L161.164 23.8661C161.748 24.4047 162.239 25.0352 162.618 25.7326C163.278 26.9826 163.608 28.3805 163.576 29.7936C163.604 31.2021 163.275 32.5949 162.618 33.8414Z" fill="#023763"/>
<path d="M179.64 21.4839C179.253 21.5279 178.865 21.5508 178.476 21.5526H169.59C168.814 21.5453 168.04 21.463 167.28 21.3068C166.941 21.2327 166.693 21.1693 166.526 21.1138V24.2044H166.828V23.7656C166.822 23.5834 166.854 23.402 166.92 23.2323C166.987 23.0625 167.087 22.908 167.214 22.7779C167.342 22.6478 167.495 22.5448 167.663 22.4751C167.831 22.4054 168.012 22.3704 168.194 22.3722H173.146V36.2366C173.137 36.4352 173.088 36.6299 173.002 36.809C172.916 36.988 172.794 37.1477 172.644 37.2783C172.342 37.5653 171.939 37.722 171.523 37.7146H171.195V37.9789H176.829V37.7146H176.528C176.111 37.722 175.709 37.5653 175.407 37.2783C175.26 37.1468 175.14 36.987 175.056 36.8086C174.971 36.6301 174.924 36.4366 174.915 36.2393V22.3722H179.864C180.047 22.3704 180.227 22.4054 180.396 22.4751C180.564 22.5448 180.717 22.6478 180.844 22.7779C180.972 22.908 181.072 23.0625 181.139 23.2323C181.205 23.402 181.237 23.5834 181.231 23.7656V24.2044H181.533V21.1138C181.281 21.1913 181.025 21.2558 180.766 21.3068C180.428 21.3782 180.047 21.439 179.64 21.4839Z" fill="#023763"/>
<path d="M195.759 34.0767C195.519 34.6327 195.217 35.1595 194.858 35.6472C194.505 36.1211 194.04 36.5 193.504 36.7496C192.808 37.0408 192.056 37.1762 191.302 37.1462H187.146V30.1929H191.793C191.952 30.18 192.111 30.2041 192.258 30.2633C192.405 30.3225 192.537 30.4151 192.642 30.5339C192.821 30.7639 192.915 31.049 192.906 31.3403V31.6972H193.208V27.8689H192.906V28.2232C192.912 28.5102 192.819 28.7903 192.642 29.0164C192.537 29.136 192.406 29.2293 192.259 29.289C192.111 29.3487 191.952 29.373 191.793 29.3601H187.146V22.4279H192.806C192.991 22.4204 193.175 22.4532 193.346 22.5239C193.516 22.5947 193.67 22.7017 193.795 22.8377C194.039 23.1062 194.171 23.4583 194.162 23.8212V24.231H194.464V21.1509C194.033 21.2874 193.59 21.3839 193.142 21.4391C192.546 21.5362 191.943 21.5866 191.339 21.5898H183.407V21.8541H183.79C184.204 21.8383 184.607 21.9866 184.911 22.2666C185.055 22.3997 185.17 22.5603 185.25 22.7388C185.33 22.9173 185.373 23.1101 185.377 23.3056V36.2394C185.36 36.6445 185.183 37.0265 184.886 37.3027C184.59 37.5788 184.196 37.7268 183.79 37.7147H183.407V37.979H194.511L196.016 34.0688L195.759 34.0767Z" fill="#023763"/>
<path d="M49.6147 26.7902C49.6182 23.0469 48.701 19.3601 46.9438 16.0548C45.1866 12.7495 42.6435 9.92711 39.5385 7.83632C36.4334 5.74554 32.8618 4.45054 29.1383 4.06544C25.4149 3.68034 21.6538 4.21696 18.1866 5.62801C14.7194 7.03906 11.6525 9.28123 9.25603 12.1569C6.8596 15.0327 5.20725 18.4537 4.44457 22.1185C3.6819 25.7833 3.83231 29.5795 4.88255 33.1725C5.93279 36.7654 7.85062 40.045 10.4671 42.7221V39.7002C7.90146 36.4593 6.35845 32.5281 6.03454 28.4073C5.71063 24.2865 6.62047 20.1626 8.6482 16.5606C10.6759 12.9587 13.7298 10.0417 17.4209 8.18116C21.112 6.32064 25.2733 5.60075 29.3749 6.11317C33.4765 6.62559 37.3328 8.34713 40.4528 11.0586C43.5727 13.77 45.815 17.3486 46.8943 21.3388C47.9735 25.3289 47.8408 29.5499 46.513 33.4644C45.1853 37.3788 42.7225 40.8095 39.4385 43.3196L39.7663 45.5537C42.8034 43.4562 45.2862 40.6531 47.0015 37.3849C48.7169 34.1168 49.6136 30.4812 49.6147 26.7902Z" fill="#023763"/>
<path d="M30.6529 32.3662C29.7089 30.7112 28.3156 29.3574 26.6342 28.4613C24.9175 27.5359 22.924 27.0732 20.6538 27.0732H9.84308L9.8748 27.3931H10.2582C10.5248 27.3901 10.7892 27.4408 11.0359 27.5421C11.2825 27.6434 11.5062 27.7932 11.6938 27.9827C11.8875 28.1646 12.0413 28.3847 12.1455 28.6291C12.2497 28.8735 12.3021 29.1368 12.2992 29.4025V47.0608C12.285 47.5962 12.062 48.1048 11.6779 48.4779C11.4942 48.6683 11.2735 48.8191 11.0293 48.9209C10.7851 49.0228 10.5227 49.0736 10.2582 49.0702H9.84308V49.3874H20.6538C22.9293 49.3874 24.9228 48.9195 26.6342 47.9835C28.3116 47.082 29.7036 45.7294 30.6529 44.0785C31.6206 42.4076 32.1044 40.4565 32.1044 38.225C32.148 36.178 31.6471 34.1562 30.6529 32.3662Z" fill="#04ADEE"/>
<path d="M28.0143 39.3618L27.9985 23.0254L26.2562 23.028L26.2747 39.5019L27.1234 41.1358L28.0143 39.3618Z" fill="#023763"/>
<path d="M25.775 13.1081C25.9186 13.2375 26.0351 13.3941 26.1177 13.5688C26.2003 13.7435 26.2473 13.933 26.2561 14.126V19.6781H27.9958V14.126C28.0046 13.933 28.0517 13.7435 28.1343 13.5688C28.2169 13.3941 28.3334 13.2375 28.477 13.1081C28.7743 12.8295 29.1695 12.6793 29.5768 12.6904H29.8967V12.426H24.3817V12.6904H24.6751C25.0824 12.6796 25.4775 12.8297 25.775 13.1081Z" fill="#023763"/>
<path d="M34.7853 23.0015C34.9786 23.0102 35.1683 23.0575 35.3431 23.1406C35.5179 23.2237 35.6743 23.3409 35.8032 23.4854C35.9418 23.6326 36.0501 23.8058 36.1218 23.995C36.1935 24.1842 36.2271 24.3856 36.2209 24.5878V24.9078H36.4853V19.3979H36.2209V19.6941C36.2287 20.102 36.0747 20.4965 35.7926 20.7913C35.664 20.9358 35.5076 21.0529 35.3327 21.1356C35.1578 21.2183 34.968 21.2648 34.7747 21.2724L19.4826 21.2989C19.2893 21.2913 19.0995 21.2447 18.9246 21.162C18.7497 21.0794 18.5933 20.9622 18.4647 20.8177C18.1826 20.5229 18.0286 20.1285 18.0364 19.7205V19.3979H17.772V24.913H18.0364V24.6196C18.033 24.2127 18.1908 23.8211 18.4753 23.5303C18.6039 23.3858 18.7603 23.2686 18.9352 23.186C19.1101 23.1033 19.2999 23.0567 19.4932 23.0491L26.2562 23.0359H27.9985L34.7853 23.0015Z" fill="#023763"/>
<path d="M40.3585 49.0805C39.8402 49.084 39.3354 48.9158 38.9229 48.602C38.5156 48.2921 38.2468 47.8343 38.1747 47.3277L35.6075 29.8174H35.3193L27.1841 46.0031L18.7714 29.8174H18.4488L15.9768 47.2669H15.961C15.9419 47.528 15.8683 47.7822 15.7449 48.0131C15.6215 48.244 15.451 48.4464 15.2445 48.6073C14.8284 48.9259 14.3169 49.0945 13.793 49.0858H13.3145V49.3819H19.2155V49.1176H18.7714C18.5843 49.129 18.3975 49.0916 18.2293 49.0091C18.0611 48.9266 17.9171 48.8018 17.8117 48.6469C17.6832 48.4372 17.6071 48.1996 17.5896 47.9543L19.0358 34.9993L26.703 49.3634H27.0387L34.1586 34.7402L35.8401 47.7401C35.8805 48.049 35.8192 48.3627 35.6656 48.6337C35.507 48.9298 35.1818 49.0911 34.6927 49.1123H34.2142V49.3978H40.8476V49.0805H40.3585Z" fill="#023763"/>
</svg>
