<svg width="32" height="24" viewBox="0 0 32 24" fill="none" xmlns="http://www.w3.org/2000/svg">
<path d="M1.45456 10.0977H27.0344L19.3355 2.47577C19.1965 2.34294 19.0857 2.18404 19.0095 2.00836C18.9333 1.83267 18.8931 1.64372 18.8915 1.45251C18.8898 1.26131 18.9266 1.07169 18.9997 0.894721C19.0729 0.71775 19.1809 0.556971 19.3174 0.421766C19.454 0.28656 19.6164 0.179636 19.7952 0.107232C19.9739 0.034827 20.1655 -0.00160713 20.3586 5.43702e-05C20.5517 0.00171587 20.7426 0.0414401 20.9201 0.116909C21.0975 0.192378 21.258 0.302081 21.3922 0.439615L31.5741 10.5196C31.8468 10.7897 32 11.1559 32 11.5377C32 11.9195 31.8468 12.2857 31.5741 12.5558L21.3922 22.6358C21.1179 22.8981 20.7505 23.0432 20.3691 23.0399C19.9877 23.0367 19.6229 22.8852 19.3532 22.6182C19.0835 22.3512 18.9305 21.9901 18.9272 21.6125C18.9239 21.2349 19.0705 20.8712 19.3355 20.5996L27.0344 12.9777H1.45456C1.06879 12.9777 0.698812 12.826 0.426029 12.5559C0.153248 12.2859 0 11.9196 0 11.5377C0 11.1558 0.153248 10.7895 0.426029 10.5195C0.698812 10.2494 1.06879 10.0977 1.45456 10.0977Z" fill="white"/>
</svg>
