<svg width="30" height="30" viewBox="0 0 30 30" fill="none" xmlns="http://www.w3.org/2000/svg">
<g clip-path="url(#clip0_788_1385)">
<path d="M23.4375 0H6.5625C2.93813 0 0 2.93813 0 6.5625V23.4375C0 27.0619 2.93813 30 6.5625 30H23.4375C27.0619 30 30 27.0619 30 23.4375V6.5625C30 2.93813 27.0619 0 23.4375 0Z" fill="#FF4B55"/>
<path d="M30 12.4138H13.4483V0H8.27584V12.4138H0V17.5862H8.27584V30H13.4483V17.5862H30V12.4138Z" fill="#F5F5F5"/>
<path d="M30 13.4483H12.4138V0H9.31037V13.4483H0V16.5517H9.31037V30H12.4138V16.5517H30V13.4483Z" fill="#41479B"/>
</g>
<defs>
<clipPath id="clip0_788_1385">
<rect width="30" height="30" fill="white"/>
</clipPath>
</defs>
</svg>
