<svg width="32" height="24" viewBox="0 0 32 24" fill="none" xmlns="http://www.w3.org/2000/svg">
<path d="M30.5454 10.0977H4.96556L12.6645 2.47577C12.8035 2.34294 12.9143 2.18404 12.9905 2.00836C13.0667 1.83267 13.1069 1.64372 13.1085 1.45251C13.1102 1.26131 13.0734 1.07169 13.0003 0.894721C12.9271 0.71775 12.8191 0.556971 12.6826 0.421766C12.546 0.28656 12.3836 0.179636 12.2048 0.107232C12.0261 0.034827 11.8345 -0.00160713 11.6414 5.43702e-05C11.4483 0.00171587 11.2574 0.0414401 11.0799 0.116909C10.9025 0.192378 10.742 0.302081 10.6078 0.439615L0.425875 10.5196C0.153188 10.7897 0 11.1559 0 11.5377C0 11.9195 0.153188 12.2857 0.425875 12.5558L10.6078 22.6358C10.8821 22.8981 11.2495 23.0432 11.6309 23.0399C12.0123 23.0367 12.3771 22.8852 12.6468 22.6182C12.9165 22.3512 13.0695 21.9901 13.0728 21.6125C13.0761 21.2349 12.9295 20.8712 12.6645 20.5996L4.96556 12.9777H30.5454C30.9312 12.9777 31.3012 12.826 31.574 12.5559C31.8468 12.2859 32 11.9196 32 11.5377C32 11.1558 31.8468 10.7895 31.574 10.5195C31.3012 10.2494 30.9312 10.0977 30.5454 10.0977Z" fill="white"/>
</svg>
