<svg width="16" height="16" viewBox="0 0 16 16" fill="none" xmlns="http://www.w3.org/2000/svg">
<path d="M3.54594 9.66905L2.989 11.7482L0.953406 11.7912C0.345063 10.6629 0 9.37192 0 8.00005C0 6.67345 0.322625 5.42245 0.8945 4.32092H0.894938L2.70719 4.65317L3.50106 6.45455C3.33491 6.93895 3.24434 7.45895 3.24434 8.00005C3.24441 8.5873 3.35078 9.14995 3.54594 9.66905Z" fill="#FBBB00"/>
<path d="M15.8602 6.50549C15.9521 6.98943 16 7.48921 16 7.99999C16 8.57274 15.9398 9.13143 15.8251 9.67034C15.4357 11.5042 14.4181 13.1055 13.0084 14.2387L13.008 14.2382L10.7253 14.1218L10.4023 12.1051C11.3377 11.5565 12.0687 10.698 12.4537 9.67034H8.1759V6.50549H12.5161H15.8602Z" fill="#518EF8"/>
<path d="M13.0079 14.2383L13.0083 14.2387C11.6373 15.3407 9.89577 16 7.99996 16C4.95337 16 2.30459 14.2972 0.953369 11.7913L3.5459 9.66907C4.22149 11.4721 5.96084 12.7557 7.99996 12.7557C8.87643 12.7557 9.69756 12.5187 10.4022 12.1051L13.0079 14.2383Z" fill="#28B446"/>
<path d="M13.1064 1.84175L10.5148 3.9635C9.78553 3.50769 8.92353 3.24437 8.00003 3.24437C5.91475 3.24437 4.14288 4.58678 3.50113 6.4545L0.894969 4.32088H0.894531C2.22597 1.75384 4.90816 0 8.00003 0C9.94112 0 11.7209 0.691437 13.1064 1.84175Z" fill="#F14336"/>
</svg>
