<svg width="20" height="20" viewBox="0 0 20 20" fill="none" xmlns="http://www.w3.org/2000/svg">
<g clip-path="url(#clip0_788_1609)">
<path d="M15.625 20H4.375C1.95875 20 0 18.0413 0 15.625V4.375C0 1.95875 1.95875 0 4.375 0H15.625C18.0413 0 20 1.95875 20 4.375V15.625C20 18.0413 18.0413 20 15.625 20Z" fill="#41479B"/>
<path d="M20.0002 15.6247V14.6643L16.8979 12.6318H20.0002V11.5791H11.5791V20.0002H12.6317V13.6119L19.3088 17.9865C19.5452 17.6183 19.7278 17.2123 19.8459 16.7796" fill="#F5F5F5"/>
<path d="M0.29418 17.205C0.400742 17.48 0.534102 17.7416 0.691367 17.9865L7.3684 13.6119V20.0002H8.42102V11.5791H0V12.6318H3.1023L0 14.6643V15.6252C0 15.7934 0.00984375 15.9593 0.0283203 16.1225" fill="#F5F5F5"/>
<path d="M0 4.52371V5.33586L3.1023 7.36844H0V8.42105H8.42105V0H7.36844V6.38828L0.691367 2.01367C0.431875 2.4177 0.237227 2.86727 0.121641 3.34766" fill="#F5F5F5"/>
<path d="M19.7002 2.78004C19.5946 2.51055 19.4632 2.25402 19.3088 2.01363L12.6317 6.38828V0H11.5791V8.42105H20.0002V7.36844H16.8979L20.0002 5.33586V4.375C20.0002 4.20078 19.9896 4.02898 19.9698 3.86008" fill="#F5F5F5"/>
<path d="M11.5789 0H8.42105V8.42105H0V11.5789H8.42105V20H11.5789V11.5789H20V8.42105H11.5789V0Z" fill="#FF4B55"/>
<path d="M5.40605 12.6319L0.0283203 16.1227C0.0710547 16.5001 0.16168 16.863 0.294219 17.2051L7.33949 12.6318L5.40605 12.6319Z" fill="#FF4B55"/>
<path d="M13.4561 12.6319L19.8461 16.7798C19.9465 16.4119 20.0004 16.0249 20.0004 15.6253V15.6248L15.3895 12.6318L13.4561 12.6319Z" fill="#FF4B55"/>
<path d="M6.31578 7.36844L0.121641 3.34766C0.0423047 3.67719 0 4.02113 0 4.375V4.52371L4.38234 7.36844H6.31578Z" fill="#FF4B55"/>
<path d="M14.5652 7.36863L19.9699 3.86027C19.9257 3.48355 19.8339 3.12145 19.7003 2.78027L12.6318 7.36863H14.5652Z" fill="#FF4B55"/>
</g>
<defs>
<clipPath id="clip0_788_1609">
<rect width="20" height="20" fill="white"/>
</clipPath>
</defs>
</svg>
