<svg width="30" height="30" viewBox="0 0 30 30" fill="none" xmlns="http://www.w3.org/2000/svg">
<g clip-path="url(#clip0_788_1452)">
<path d="M23.4375 30H6.5625C2.93813 30 0 27.0619 0 23.4375V6.5625C0 2.93813 2.93813 0 6.5625 0H23.4375C27.0619 0 30 2.93813 30 6.5625V23.4375C30 27.0619 27.0619 30 23.4375 30Z" fill="#41479B"/>
<path d="M30 23.4366V21.996L25.3465 18.9471H30V17.3682H17.3684V29.9997H18.9473V20.4173L28.9629 26.9792C29.3176 26.427 29.5915 25.8179 29.7685 25.1689" fill="#F5F5F5"/>
<path d="M0.44127 25.807C0.601113 26.2195 0.801152 26.6119 1.03705 26.9792L11.0526 20.4173V29.9997H12.6315V17.3682H0V18.9471H4.65346L0 21.996V23.4372C0 23.6896 0.0147656 23.9384 0.0424805 24.1833" fill="#F5F5F5"/>
<path d="M0 6.78557V8.00379L4.65346 11.0527H0V12.6316H12.6316V0H11.0527V9.58242L1.03705 3.02051C0.647812 3.62654 0.35584 4.3009 0.182461 5.02148" fill="#F5F5F5"/>
<path d="M29.5501 4.17006C29.3917 3.76582 29.1945 3.38103 28.9629 3.02045L18.9473 9.58242V0H17.3684V12.6316H30V11.0527H25.3465L30 8.00379V6.5625C30 6.30117 29.9842 6.04348 29.9545 5.79012" fill="#F5F5F5"/>
<path d="M17.3684 0H12.6316V12.6316H0V17.3684H12.6316V30H17.3684V17.3684H30V12.6316H17.3684V0Z" fill="#FF4B55"/>
<path d="M8.10908 18.9473L0.0424805 24.1835C0.106582 24.7497 0.24252 25.294 0.441328 25.8071L11.0092 18.9473L8.10908 18.9473Z" fill="#FF4B55"/>
<path d="M20.1836 18.9473L29.7687 25.1692C29.9192 24.6174 30.0001 24.0369 30.0001 23.4374V23.4368L23.0838 18.9473L20.1836 18.9473Z" fill="#FF4B55"/>
<path d="M9.47367 11.0527L0.182461 5.02148C0.063457 5.51578 0 6.0317 0 6.5625V6.78557L6.57352 11.0527H9.47367Z" fill="#FF4B55"/>
<path d="M21.8474 11.0525L29.9544 5.78992C29.8881 5.22484 29.7504 4.68168 29.55 4.16992L18.9473 11.0525H21.8474Z" fill="#FF4B55"/>
</g>
<defs>
<clipPath id="clip0_788_1452">
<rect width="30" height="30" fill="white"/>
</clipPath>
</defs>
</svg>
